<svg width="140" height="41" viewBox="0 0 140 41" fill="none" xmlns="http://www.w3.org/2000/svg">
<path d="M8.85 34.2H13.5V40.4C13.3 40.4667 13.0167 40.5333 12.65 40.6C12.2833 40.6667 11.8833 40.7 11.45 40.7C10.6167 40.7 9.96667 40.5333 9.5 40.2C9.06667 39.8667 8.85 39.3167 8.85 38.55V34.2ZM13.5 8.25H8.85V1.15C9.08333 1.08333 9.38333 1.03333 9.75 0.999998C10.1167 0.933332 10.5167 0.899999 10.95 0.899999C11.8167 0.899999 12.45 1.06667 12.85 1.4C13.2833 1.73333 13.5 2.26666 13.5 3V8.25ZM10.85 32.4C12.9167 32.4 14.4667 31.95 15.5 31.05C16.5333 30.15 17.05 29.0167 17.05 27.65C17.05 26.45 16.65 25.4667 15.85 24.7C15.05 23.9333 13.8167 23.3 12.15 22.8L8.35 21.65C6.81667 21.1833 5.48333 20.6 4.35 19.9C3.21667 19.2 2.33333 18.3167 1.7 17.25C1.06667 16.1833 0.75 14.9 0.75 13.4C0.75 10.7667 1.71667 8.7 3.65 7.2C5.61667 5.66666 8.25 4.9 11.55 4.9C13.3833 4.9 15.0167 5.1 16.45 5.5C17.9167 5.86667 19.05 6.36666 19.85 7C20.6833 7.63333 21.1 8.35 21.1 9.15C21.1 9.68333 20.9667 10.1667 20.7 10.6C20.4333 11 20.0833 11.3333 19.65 11.6C18.85 10.9667 17.7667 10.4167 16.4 9.95C15.0333 9.48333 13.5333 9.25 11.9 9.25C10.1 9.25 8.68333 9.63333 7.65 10.4C6.61667 11.1333 6.1 12.1333 6.1 13.4C6.1 14.4 6.46667 15.2167 7.2 15.85C7.93333 16.45 9.08333 16.9833 10.65 17.45L13.6 18.35C16.3667 19.15 18.5167 20.2833 20.05 21.75C21.6167 23.1833 22.4 25.15 22.4 27.65C22.4 30.35 21.4 32.5333 19.4 34.2C17.4 35.8667 14.5667 36.7 10.9 36.7C8.86667 36.7 7.06667 36.4667 5.5 36C3.96667 35.5667 2.76667 35 1.9 34.3C1.03333 33.5667 0.6 32.7833 0.6 31.95C0.6 31.2833 0.8 30.7333 1.2 30.3C1.6 29.8333 2.05 29.4833 2.55 29.25C3.38333 29.9833 4.48333 30.7 5.85 31.4C7.25 32.0667 8.91667 32.4 10.85 32.4ZM30.2602 27.15L30.0102 23.4L44.2102 21.4C44.1102 19.8333 43.5602 18.5333 42.5602 17.5C41.5602 16.4333 40.1435 15.9 38.3102 15.9C36.4435 15.9 34.8935 16.5667 33.6602 17.9C32.4268 19.2333 31.7935 21.1333 31.7602 23.6L31.8602 25.5C32.1268 27.8667 32.9768 29.65 34.4102 30.85C35.8435 32.0167 37.7268 32.6 40.0602 32.6C41.4602 32.6 42.7435 32.3833 43.9102 31.95C45.0768 31.5167 46.0102 31.05 46.7102 30.55C47.1102 30.7833 47.4268 31.1 47.6602 31.5C47.9268 31.9 48.0602 32.3333 48.0602 32.8C48.0602 33.5333 47.6935 34.2 46.9602 34.8C46.2268 35.4 45.2268 35.8667 43.9602 36.2C42.7268 36.5333 41.3268 36.7 39.7602 36.7C37.1935 36.7 34.9435 36.2333 33.0102 35.3C31.0768 34.3333 29.5768 32.9167 28.5102 31.05C27.4435 29.15 26.9102 26.8333 26.9102 24.1C26.9102 22.1333 27.1935 20.4 27.7602 18.9C28.3602 17.3667 29.1768 16.0833 30.2102 15.05C31.2435 14.0167 32.4602 13.2333 33.8602 12.7C35.2602 12.1667 36.7602 11.9 38.3602 11.9C40.4602 11.9 42.3102 12.35 43.9102 13.25C45.5435 14.1167 46.8102 15.3333 47.7102 16.9C48.6102 18.4667 49.0602 20.25 49.0602 22.25C49.0602 23.0833 48.8602 23.7 48.4602 24.1C48.0602 24.4667 47.4935 24.7 46.7602 24.8L30.2602 27.15ZM56.6273 27.15L56.3773 23.4L70.5773 21.4C70.4773 19.8333 69.9273 18.5333 68.9273 17.5C67.9273 16.4333 66.5107 15.9 64.6773 15.9C62.8107 15.9 61.2607 16.5667 60.0273 17.9C58.794 19.2333 58.1607 21.1333 58.1273 23.6L58.2273 25.5C58.494 27.8667 59.344 29.65 60.7773 30.85C62.2107 32.0167 64.094 32.6 66.4273 32.6C67.8273 32.6 69.1107 32.3833 70.2773 31.95C71.444 31.5167 72.3773 31.05 73.0773 30.55C73.4773 30.7833 73.794 31.1 74.0273 31.5C74.294 31.9 74.4273 32.3333 74.4273 32.8C74.4273 33.5333 74.0607 34.2 73.3273 34.8C72.594 35.4 71.594 35.8667 70.3273 36.2C69.094 36.5333 67.694 36.7 66.1273 36.7C63.5607 36.7 61.3107 36.2333 59.3773 35.3C57.444 34.3333 55.944 32.9167 54.8773 31.05C53.8107 29.15 53.2773 26.8333 53.2773 24.1C53.2773 22.1333 53.5607 20.4 54.1273 18.9C54.7273 17.3667 55.544 16.0833 56.5773 15.05C57.6107 14.0167 58.8273 13.2333 60.2273 12.7C61.6273 12.1667 63.1273 11.9 64.7273 11.9C66.8273 11.9 68.6773 12.35 70.2773 13.25C71.9107 14.1167 73.1773 15.3333 74.0773 16.9C74.9773 18.4667 75.4273 20.25 75.4273 22.25C75.4273 23.0833 75.2273 23.7 74.8273 24.1C74.4273 24.4667 73.8607 24.7 73.1273 24.8L56.6273 27.15Z" fill="white"/>
<path d="M84.0945 27.9V22.65H103.895V27.9H84.0945ZM89.0445 1.1H98.2445L108.395 36H101.945L95.6945 14L93.6445 5.8L91.4945 14.05L85.1945 36H78.8945L89.0445 1.1ZM114.964 36V1.1H121.264V30.75H139.064V36H114.964Z" fill="#98E2C6"/>
</svg>
